<?xml version="1.0" standalone="no"?>
<!DOCTYPE svg PUBLIC "-//W3C//DTD SVG 20010904//EN"
 "http://www.w3.org/TR/2001/REC-SVG-20010904/DTD/svg10.dtd">
<svg version="1.0" xmlns="http://www.w3.org/2000/svg"
 width="1080.000000pt" height="1080.000000pt" viewBox="0 0 1080.000000 1080.000000"
 preserveAspectRatio="xMidYMid meet">

<g transform="translate(0.000000,1080.000000) scale(0.100000,-0.100000)"
fill="#000000" stroke="none">
<path d="M5115 9709 c-246 -16 -535 -62 -815 -130 -300 -74 -542 -162 -848
-310 -229 -110 -326 -165 -522 -294 -287 -189 -505 -369 -750 -622 -742 -761
-1182 -1745 -1261 -2823 -14 -200 -7 -597 16 -795 105 -925 481 -1779 1091
-2475 105 -120 323 -337 434 -432 176 -152 453 -353 630 -458 102 -61 371
-199 494 -254 904 -405 1953 -493 2924 -246 1098 281 2033 949 2657 1900 369
563 601 1197 697 1902 19 143 22 209 23 543 0 310 -3 406 -18 520 -70 542
-198 980 -421 1440 -107 219 -186 361 -299 530 -341 513 -771 942 -1282 1276
-278 183 -495 295 -830 429 -574 229 -1286 340 -1920 299z m1367 -1719 c79 -6
158 -13 176 -16 l32 -5 0 -439 0 -440 -252 0 c-279 -1 -426 -11 -503 -37 -110
-36 -178 -99 -218 -199 -29 -75 -37 -192 -37 -535 l0 -339 491 0 491 0 -6 -32
c-3 -18 -30 -229 -61 -468 -30 -239 -58 -447 -61 -462 l-6 -28 -424 0 -424 0
0 -1265 0 -1265 -507 2 -508 3 -3 1263 -2 1262 -425 0 -425 0 0 495 0 495 424
0 424 0 5 463 c3 368 7 480 20 552 50 278 150 484 317 659 194 202 428 307
780 350 57 7 548 -3 702 -14z"/>
</g>
</svg>
