<?xml version="1.0" standalone="no"?>
<!DOCTYPE svg PUBLIC "-//W3C//DTD SVG 20010904//EN"
 "http://www.w3.org/TR/2001/REC-SVG-20010904/DTD/svg10.dtd">
<svg version="1.0" xmlns="http://www.w3.org/2000/svg"
 width="900.000000pt" height="900.000000pt" viewBox="0 0 900.000000 900.000000"
 preserveAspectRatio="xMidYMid meet">

<g transform="translate(0.000000,900.000000) scale(0.100000,-0.100000)"
fill="#000000" stroke="none">
<path d="M4095 8484 c-334 -37 -550 -83 -860 -182 -1088 -347 -2001 -1187
-2449 -2251 -379 -900 -416 -1915 -105 -2836 451 -1331 1572 -2334 2947 -2634
99 -22 209 -40 402 -68 197 -28 717 -25 940 5 700 96 1266 315 1825 706 199
139 336 256 540 460 539 539 914 1238 1070 1991 129 621 110 1257 -55 1870
-135 500 -395 1019 -715 1424 -77 97 -275 318 -357 397 -342 332 -790 631
-1208 809 -36 15 -74 31 -85 36 -11 4 -58 22 -105 39 -47 18 -101 38 -120 45
-74 27 -371 105 -495 129 -275 54 -420 68 -740 71 -214 3 -337 -1 -430 -11z
m1138 -1737 c5 -70 11 -94 63 -261 64 -201 189 -372 378 -515 155 -118 312
-181 508 -203 l106 -12 7 -160 c3 -89 5 -255 3 -371 l-3 -210 -110 2 c-275 3
-585 100 -846 264 -43 27 -83 49 -89 49 -7 0 -10 -273 -10 -817 0 -871 -2
-916 -50 -1091 -28 -101 -104 -268 -175 -382 -72 -115 -271 -320 -385 -395
-231 -153 -474 -231 -745 -240 -314 -11 -612 80 -850 259 -297 224 -477 496
-557 839 -26 116 -36 368 -18 489 43 296 163 548 365 766 69 74 254 225 294
240 9 3 32 15 51 27 37 22 194 91 245 107 151 47 380 75 514 62 l94 -9 3 -90
c1 -49 3 -220 5 -380 l2 -290 -29 2 c-16 1 -68 5 -115 9 -202 16 -387 -55
-519 -200 -182 -201 -219 -476 -97 -726 36 -74 163 -210 237 -253 172 -101
342 -122 522 -64 160 52 301 170 377 316 75 145 71 42 71 1760 0 846 3 1541 7
1544 3 4 171 7 373 7 l367 0 6 -73z"/>
</g>
</svg>
