<?xml version="1.0" standalone="no"?>
<!DOCTYPE svg PUBLIC "-//W3C//DTD SVG 20010904//EN"
 "http://www.w3.org/TR/2001/REC-SVG-20010904/DTD/svg10.dtd">
<svg version="1.0" xmlns="http://www.w3.org/2000/svg"
 width="900.000000pt" height="900.000000pt" viewBox="0 0 900.000000 900.000000"
 preserveAspectRatio="xMidYMid meet">

<g transform="translate(0.000000,900.000000) scale(0.100000,-0.100000)"
fill="#000000" stroke="none">
<path d="M4255 8718 c-458 -24 -975 -143 -1385 -320 -671 -288 -1230 -712
-1674 -1268 -92 -114 -117 -149 -209 -284 -131 -191 -280 -467 -373 -688 -254
-602 -366 -1224 -334 -1855 12 -245 22 -336 61 -553 39 -209 50 -260 105 -446
132 -454 346 -892 618 -1269 131 -182 389 -484 483 -565 21 -18 72 -65 114
-104 41 -39 109 -98 150 -130 41 -33 94 -76 119 -96 100 -81 369 -260 500
-333 149 -82 383 -193 511 -242 48 -19 95 -38 106 -43 66 -36 398 -128 678
-188 70 -15 256 -38 435 -55 208 -20 697 -15 753 7 10 3 42 4 70 1 38 -5 48
-4 37 4 -11 8 -3 9 33 6 28 -3 47 0 47 6 0 6 18 8 46 4 26 -2 42 -2 36 2 -6 4
43 15 108 25 66 10 123 22 126 28 3 5 12 7 20 4 7 -3 16 0 20 5 3 6 17 9 30 6
13 -2 24 0 24 6 0 5 11 7 25 5 15 -3 22 -1 18 5 -4 7 6 8 28 4 26 -5 30 -4 19
4 -12 8 -9 10 13 6 15 -2 27 -1 27 3 0 4 25 12 55 19 30 7 57 17 61 22 3 5 15
7 26 3 12 -3 18 -2 15 3 -8 13 66 35 89 26 11 -4 15 -3 10 5 -4 7 6 13 29 18
19 3 38 10 41 15 3 5 10 7 15 4 5 -4 9 -2 9 4 0 6 7 8 15 5 8 -4 15 -1 15 5 0
6 7 8 17 4 11 -5 14 -3 8 6 -6 10 -2 11 15 6 17 -5 21 -4 15 6 -6 9 -3 11 8 6
10 -3 17 -3 17 2 0 5 29 19 65 32 36 12 65 27 65 31 0 5 5 6 11 3 5 -4 19 1
29 10 10 9 24 14 29 10 6 -3 11 -1 11 5 0 6 4 9 9 6 13 -8 42 4 35 15 -4 8 8
11 32 8 3 0 13 8 22 18 9 10 23 18 30 19 28 2 33 4 27 13 -6 11 31 25 44 16 6
-3 13 1 18 9 4 8 15 16 23 18 8 2 23 12 33 23 10 11 16 14 12 5 -5 -12 -4 -12
7 1 7 9 18 14 23 12 6 -2 20 4 30 12 19 16 19 16 -2 5 -34 -16 -27 -3 7 15 17
9 36 13 42 9 7 -4 8 -3 4 4 -4 7 -1 12 9 12 8 0 18 7 22 16 3 8 12 13 19 10 7
-3 16 0 20 6 4 7 3 8 -4 4 -7 -4 -12 -5 -12 -2 0 3 10 10 21 17 17 9 20 8 14
-3 -4 -7 3 -2 15 12 12 14 19 18 15 10 -4 -8 0 -7 9 4 8 10 19 15 25 12 5 -4
13 -1 17 5 5 8 3 9 -6 4 -9 -5 -11 -4 -6 3 4 7 14 12 22 12 8 0 12 4 9 10 -3
5 0 7 8 4 9 -3 22 4 31 18 9 12 16 19 16 15 0 -4 9 2 20 13 11 11 25 20 31 20
5 0 7 5 3 12 -5 7 -3 8 6 3 8 -5 20 1 32 16 11 13 17 17 13 9 -3 -8 5 -1 19
15 14 17 26 26 26 22 0 -10 22 7 83 68 28 28 42 40 32 28 -28 -35 -11 -27 32
14 21 20 31 32 23 28 -13 -8 -13 -6 -1 8 7 9 17 14 22 11 5 -3 9 0 9 6 0 6 4
9 9 6 5 -3 14 1 21 9 11 13 10 14 -6 9 -18 -6 -18 -6 1 9 11 8 24 13 29 10 5
-4 6 -1 3 4 -4 6 1 17 10 24 12 10 14 10 9 1 -4 -6 -5 -12 -1 -12 3 0 10 12
16 27 8 22 12 24 19 13 6 -10 10 -11 10 -3 0 7 10 22 23 34 12 12 15 18 7 14
-11 -6 -12 -5 -4 4 6 7 18 13 26 15 21 3 48 31 48 50 0 9 6 15 13 14 6 -2 11
3 9 10 -1 6 4 12 12 12 8 0 17 8 21 19 3 10 15 27 27 37 14 12 19 14 13 4 -5
-9 -5 -12 1 -7 5 5 9 14 9 20 1 7 6 11 13 9 7 -1 11 3 10 10 -2 6 6 16 17 22
11 7 21 18 23 26 2 8 8 20 14 25 8 7 8 5 3 -5 -5 -9 -4 -12 1 -7 5 5 9 12 9
15 1 4 7 18 14 31 11 19 15 21 23 10 8 -11 9 -10 4 3 -3 12 8 27 35 48 21 18
37 36 34 41 -7 11 31 50 40 41 4 -4 6 -2 5 3 -5 22 1 36 12 29 6 -4 8 -3 5 3
-4 5 2 19 13 30 10 12 16 24 12 29 -4 4 1 4 11 1 11 -4 16 -3 12 4 -8 12 23
62 34 54 5 -2 8 3 7 13 0 9 4 16 11 15 7 -2 10 3 8 10 -6 17 21 50 35 42 6 -4
11 -1 9 6 -3 27 1 40 11 34 6 -4 9 -3 8 2 -4 16 14 53 23 47 5 -3 9 -2 8 3 -3
17 1 32 14 45 6 7 21 30 32 51 11 21 27 46 36 55 8 9 15 19 15 22 0 3 30 62
67 132 36 70 78 156 93 190 14 35 30 68 34 73 15 19 102 250 147 390 41 129
71 243 123 466 50 214 80 532 80 845 0 341 -25 585 -91 889 -36 165 -131 506
-149 530 -3 6 -19 46 -34 90 -16 43 -41 106 -56 140 -15 33 -38 84 -51 114
-12 30 -60 125 -105 211 -296 564 -732 1066 -1264 1455 -62 46 -240 163 -285
189 -16 9 -68 39 -115 66 -309 179 -690 330 -1087 430 -82 21 -390 75 -508 89
-183 23 -507 31 -730 19z m782 -1968 c30 -182 93 -339 179 -451 59 -77 158
-165 224 -199 74 -38 210 -77 291 -85 l66 -6 7 -91 c3 -50 6 -174 6 -275 0
-149 -3 -185 -14 -189 -28 -11 -213 19 -331 52 -135 39 -296 113 -368 168 -27
21 -51 35 -54 32 -3 -3 -7 -281 -8 -618 -1 -589 -2 -617 -23 -714 -50 -231
-146 -416 -293 -562 -201 -201 -474 -294 -768 -262 -162 17 -248 41 -386 110
-257 127 -435 341 -522 625 -26 85 -27 101 -27 285 -1 177 1 203 23 280 100
350 305 596 591 708 119 47 209 64 376 69 l161 6 6 -99 c4 -55 7 -192 7 -306
l0 -206 -132 -4 c-129 -3 -135 -4 -208 -39 -105 -51 -163 -105 -204 -192 -62
-130 -71 -266 -27 -393 42 -117 149 -219 263 -248 192 -49 340 -17 468 101 64
59 112 142 131 223 9 41 13 334 15 1190 2 624 6 1142 8 1151 3 14 33 16 267
15 l263 -1 13 -75z m-1679 -3732 c-3 -7 -13 -38 -23 -68 -25 -77 -28 -80 -101
-80 -44 0 -64 -4 -64 -12 0 -7 -1 -139 -3 -293 l-2 -280 -87 -3 -88 -3 -2 293
-3 293 -90 5 -90 5 -3 64 c-2 35 -1 70 2 77 4 11 58 14 282 14 217 0 275 -3
272 -12z m187 -13 c35 -34 34 -93 0 -125 -56 -53 -145 -15 -145 62 0 79 90
119 145 63z m275 -140 c0 -96 4 -165 9 -165 5 0 48 36 94 80 l85 80 96 0 c53
0 96 -4 96 -8 0 -5 -45 -53 -100 -106 -55 -53 -100 -102 -100 -107 0 -10 187
-286 216 -320 30 -34 18 -40 -78 -37 l-93 3 -78 115 c-42 63 -84 116 -91 118
-8 2 -23 -9 -35 -24 -18 -23 -21 -40 -21 -121 l0 -94 -82 3 -83 3 -3 373 -2
372 85 0 85 0 0 -165z m1015 133 c-4 -18 -15 -53 -24 -78 l-17 -45 -77 -3 -77
-3 -2 -292 -3 -292 -85 0 -85 0 -3 293 -2 292 -90 0 -90 0 0 80 0 80 281 0
281 0 -7 -32z m885 -133 c0 -91 3 -165 7 -165 4 0 44 36 89 80 l82 80 101 0
c55 0 101 -2 101 -5 0 -3 -47 -51 -105 -106 -58 -56 -105 -104 -105 -108 0 -4
53 -83 119 -176 65 -94 117 -173 114 -177 -2 -5 -44 -8 -93 -8 l-90 0 -80 120
c-44 66 -86 120 -94 120 -33 0 -45 -34 -48 -135 l-3 -100 -85 0 -85 0 -3 373
-2 372 90 0 90 0 0 -165z m-461 4 c59 -25 124 -91 154 -157 33 -70 30 -189 -5
-257 -30 -59 -103 -129 -156 -153 -53 -23 -201 -22 -269 1 -66 23 -141 90
-173 153 -32 64 -39 163 -15 233 55 167 286 257 464 180z m-1688 -301 c2 -226
2 -267 0 -281 -1 -4 -38 -7 -83 -5 l-83 3 -3 253 -2 252 85 0 85 0 1 -222z
m4249 -712 c0 -2 -8 -10 -17 -17 -16 -13 -17 -12 -4 4 13 16 21 21 21 13z"/>
<path d="M5052 2720 c-53 -32 -74 -75 -69 -142 4 -65 28 -100 84 -124 69 -29
138 -8 187 59 28 38 28 117 -1 155 -52 70 -136 92 -201 52z"/>
</g>
</svg>
