<?xml version="1.0" standalone="no"?>
<!DOCTYPE svg PUBLIC "-//W3C//DTD SVG 20010904//EN"
 "http://www.w3.org/TR/2001/REC-SVG-20010904/DTD/svg10.dtd">
<svg version="1.0" xmlns="http://www.w3.org/2000/svg"
 width="1024.000000pt" height="1024.000000pt" viewBox="0 0 1024.000000 1024.000000"
 preserveAspectRatio="xMidYMid meet">

<g transform="translate(0.000000,1024.000000) scale(0.100000,-0.100000)"
fill="#000000" stroke="none">
<path d="M8848 6398 c-103 -84 -186 -154 -183 -156 2 -2 81 4 175 13 94 9 173
15 176 12 4 -3 -536 -450 -580 -479 -6 -4 -13 -89 -17 -205 -14 -364 -71 -619
-209 -933 -214 -487 -593 -905 -1190 -1309 -195 -132 -308 -197 -523 -301
-303 -146 -574 -245 -881 -320 -336 -82 -514 -108 -792 -117 -552 -16 -1040
107 -1443 363 -80 52 2 -32 1194 -1226 l1280 -1281 55 6 c96 10 398 75 534
115 294 86 479 157 731 280 655 321 1230 798 1727 1435 411 527 708 1177 837
1835 99 500 122 1047 67 1549 l-14 124 -373 373 c-206 206 -376 374 -379 374
-3 0 -89 -69 -192 -152z"/>
<path d="M4112 3623 c-24 -14 -41 -27 -40 -29 2 -1 32 4 66 13 56 14 60 17 45
29 -23 17 -21 18 -71 -13z"/>
</g>
</svg>
